<svg xmlns="http://www.w3.org/2000/svg" xmlns:xlink="http://www.w3.org/1999/xlink" width="500" zoomAndPan="magnify" viewBox="0 0 375 374.999991" height="500" preserveAspectRatio="xMidYMid meet" version="1.0"><defs><clipPath id="a2623831c1"><path d="M 134 54.304688 L 160 54.304688 L 160 320.554688 L 134 320.554688 Z M 134 54.304688 " clip-rule="nonzero"/></clipPath></defs><path fill="#2d0b72" d="M 73.207031 102.746094 C 66.097656 102.746094 60.335938 108.507812 60.335938 115.617188 L 60.335938 259.316406 C 60.335938 266.425781 66.097656 272.1875 73.207031 272.1875 C 80.3125 272.1875 86.074219 266.425781 86.074219 259.316406 L 86.074219 115.617188 C 86.074219 108.507812 80.3125 102.746094 73.207031 102.746094 Z M 73.207031 102.746094 " fill-opacity="1" fill-rule="nonzero"/><path fill="#2d0b72" d="M 110.871094 71.644531 C 110.839844 71.644531 110.804688 71.644531 110.78125 71.644531 C 103.710938 71.644531 97.960938 77.351562 97.910156 84.429688 L 96.535156 290.335938 C 96.484375 297.441406 102.207031 303.242188 109.316406 303.289062 C 109.347656 303.289062 109.378906 303.289062 109.40625 303.289062 C 116.472656 303.289062 122.222656 297.582031 122.273438 290.503906 L 123.652344 84.601562 C 123.703125 77.492188 117.976562 71.695312 110.871094 71.644531 Z M 110.871094 71.644531 " fill-opacity="1" fill-rule="nonzero"/><g clip-path="url(#a2623831c1)"><path fill="#2d0b72" d="M 146.988281 54.496094 C 139.882812 54.496094 134.121094 60.261719 134.121094 67.367188 L 134.121094 307.566406 C 134.121094 314.675781 139.882812 320.4375 146.988281 320.4375 C 154.097656 320.4375 159.859375 314.675781 159.859375 307.566406 L 159.859375 67.367188 C 159.859375 60.261719 154.097656 54.496094 146.988281 54.496094 Z M 146.988281 54.496094 " fill-opacity="1" fill-rule="nonzero"/></g><path fill="#2d0b72" d="M 183.875 112.398438 C 176.765625 112.398438 171.003906 118.160156 171.003906 125.269531 L 171.003906 249.667969 C 171.003906 256.773438 176.765625 262.535156 183.875 262.535156 C 190.980469 262.535156 196.742188 256.773438 196.742188 249.667969 L 196.742188 125.269531 C 196.742188 118.160156 190.980469 112.398438 183.875 112.398438 Z M 183.875 112.398438 " fill-opacity="1" fill-rule="nonzero"/><path fill="#2d0b72" d="M 220.765625 143.230469 C 213.65625 143.230469 207.894531 148.992188 207.894531 156.101562 L 207.894531 218.835938 C 207.894531 225.945312 213.65625 231.707031 220.765625 231.707031 C 227.871094 231.707031 233.632812 225.945312 233.632812 218.835938 L 233.632812 156.101562 C 233.632812 148.992188 227.871094 143.230469 220.765625 143.230469 Z M 220.765625 143.230469 " fill-opacity="1" fill-rule="nonzero"/><path fill="#2d0b72" d="M 257.65625 82.382812 C 250.550781 82.382812 244.789062 88.144531 244.789062 95.25 L 244.789062 279.683594 C 244.789062 286.792969 250.550781 292.554688 257.65625 292.554688 C 264.765625 292.554688 270.527344 286.792969 270.527344 279.683594 L 270.527344 95.25 C 270.527344 88.144531 264.761719 82.382812 257.65625 82.382812 Z M 257.65625 82.382812 " fill-opacity="1" fill-rule="nonzero"/><path fill="#2d0b72" d="M 294.550781 117.539062 C 287.441406 117.539062 281.679688 123.300781 281.679688 130.410156 L 281.679688 244.527344 C 281.679688 251.636719 287.441406 257.398438 294.550781 257.398438 C 301.65625 257.398438 307.417969 251.636719 307.417969 244.527344 L 307.417969 130.410156 C 307.417969 123.300781 301.65625 117.539062 294.550781 117.539062 Z M 294.550781 117.539062 " fill-opacity="1" fill-rule="nonzero"/></svg>