<svg xmlns="http://www.w3.org/2000/svg" xmlns:xlink="http://www.w3.org/1999/xlink" width="500" zoomAndPan="magnify" viewBox="0 0 375 374.999991" height="500" preserveAspectRatio="xMidYMid meet" version="1.0"><defs><g/><clipPath id="dadccd7b67"><path d="M 205.578125 125 L 210 125 L 210 147 L 205.578125 147 Z M 205.578125 125 " clip-rule="nonzero"/></clipPath><clipPath id="0563afd150"><path d="M 215 118.871094 L 219 118.871094 L 219 152.621094 L 215 152.621094 Z M 215 118.871094 " clip-rule="nonzero"/></clipPath><clipPath id="8697dc4274"><path d="M 238 131 L 238.578125 131 L 238.578125 141 L 238 141 Z M 238 131 " clip-rule="nonzero"/></clipPath></defs><g clip-path="url(#dadccd7b67)"><path fill="#2d0b72" d="M 207.570312 125.023438 C 206.667969 125.023438 205.933594 125.753906 205.933594 126.660156 L 205.933594 144.925781 C 205.933594 145.832031 206.667969 146.5625 207.570312 146.5625 C 208.472656 146.5625 209.207031 145.832031 209.207031 144.925781 L 209.207031 126.660156 C 209.207031 125.753906 208.472656 125.023438 207.570312 125.023438 Z M 207.570312 125.023438 " fill-opacity="1" fill-rule="nonzero"/></g><path fill="#2d0b72" d="M 212.359375 121.070312 C 212.355469 121.070312 212.351562 121.070312 212.347656 121.070312 C 211.449219 121.070312 210.71875 121.796875 210.710938 122.695312 L 210.535156 148.871094 C 210.53125 149.773438 211.257812 150.511719 212.160156 150.515625 C 212.164062 150.515625 212.167969 150.515625 212.171875 150.515625 C 213.070312 150.515625 213.800781 149.792969 213.808594 148.890625 L 213.984375 122.714844 C 213.988281 121.8125 213.261719 121.074219 212.359375 121.070312 Z M 212.359375 121.070312 " fill-opacity="1" fill-rule="nonzero"/><g clip-path="url(#0563afd150)"><path fill="#2d0b72" d="M 216.949219 118.890625 C 216.046875 118.890625 215.3125 119.621094 215.3125 120.527344 L 215.3125 151.058594 C 215.3125 151.964844 216.046875 152.695312 216.949219 152.695312 C 217.851562 152.695312 218.585938 151.964844 218.585938 151.058594 L 218.585938 120.527344 C 218.585938 119.621094 217.851562 118.890625 216.949219 118.890625 Z M 216.949219 118.890625 " fill-opacity="1" fill-rule="nonzero"/></g><path fill="#2d0b72" d="M 221.640625 126.25 C 220.734375 126.25 220.003906 126.984375 220.003906 127.886719 L 220.003906 143.699219 C 220.003906 144.601562 220.734375 145.335938 221.640625 145.335938 C 222.542969 145.335938 223.273438 144.601562 223.273438 143.699219 L 223.273438 127.886719 C 223.273438 126.984375 222.542969 126.25 221.640625 126.25 Z M 221.640625 126.25 " fill-opacity="1" fill-rule="nonzero"/><path fill="#2d0b72" d="M 226.328125 130.167969 C 225.425781 130.167969 224.691406 130.902344 224.691406 131.804688 L 224.691406 139.78125 C 224.691406 140.683594 225.425781 141.417969 226.328125 141.417969 C 227.230469 141.417969 227.964844 140.683594 227.964844 139.78125 L 227.964844 131.804688 C 227.964844 130.902344 227.230469 130.167969 226.328125 130.167969 Z M 226.328125 130.167969 " fill-opacity="1" fill-rule="nonzero"/><path fill="#2d0b72" d="M 231.019531 122.433594 C 230.113281 122.433594 229.382812 123.167969 229.382812 124.070312 L 229.382812 147.515625 C 229.382812 148.417969 230.113281 149.152344 231.019531 149.152344 C 231.921875 149.152344 232.65625 148.417969 232.65625 147.515625 L 232.65625 124.070312 C 232.652344 123.167969 231.921875 122.433594 231.019531 122.433594 Z M 231.019531 122.433594 " fill-opacity="1" fill-rule="nonzero"/><path fill="#2d0b72" d="M 235.707031 126.902344 C 234.804688 126.902344 234.070312 127.636719 234.070312 128.539062 L 234.070312 143.046875 C 234.070312 143.949219 234.804688 144.683594 235.707031 144.683594 C 236.613281 144.683594 237.34375 143.949219 237.34375 143.046875 L 237.34375 128.539062 C 237.34375 127.636719 236.613281 126.902344 235.707031 126.902344 Z M 235.707031 126.902344 " fill-opacity="1" fill-rule="nonzero"/><g clip-path="url(#8697dc4274)"><path fill="#2d0b72" d="M 240.398438 131.019531 C 239.496094 131.019531 238.761719 131.753906 238.761719 132.65625 L 238.761719 138.929688 C 238.761719 139.832031 239.496094 140.566406 240.398438 140.566406 C 241.300781 140.566406 242.035156 139.832031 242.035156 138.929688 L 242.035156 132.65625 C 242.035156 131.753906 241.300781 131.019531 240.398438 131.019531 Z M 240.398438 131.019531 " fill-opacity="1" fill-rule="nonzero"/></g><path stroke-linecap="butt" transform="matrix(0.392811, 0, 0, 0.392811, 51.589367, 134.47045)" fill="none" stroke-linejoin="miter" d="M 5.619766 100.831272 C 4.078394 97.340809 3.302735 93.989566 3.302735 90.777545 C 3.302735 87.943408 3.869562 85.268381 5.003217 82.752463 C 6.166705 80.236545 7.708077 78.04879 9.627335 76.199143 C 11.576425 74.309719 13.873568 72.808124 16.518762 71.714246 C 19.163956 70.610425 21.96826 70.063486 24.921729 70.063486 C 34.45835 70.063486 41.488998 75.403596 46.023617 86.103705 L 66.320013 134.443139 L 87.362235 84.781108 C 89.440602 79.997881 92.215073 76.348308 95.675703 73.832391 C 99.166166 71.316473 103.243345 70.063486 107.897296 70.063486 C 110.731433 70.063486 113.436293 70.610425 116.021821 71.714246 C 118.597405 72.808124 120.844826 74.339552 122.764083 76.288642 C 124.683341 78.2079 126.224713 80.425488 127.388201 82.941405 C 128.551689 85.457323 129.138405 88.132351 129.138405 90.966487 C 129.138405 94.307785 128.034583 98.295465 125.836884 102.95936 L 87.551178 185.129436 C 84.846317 190.917042 81.863016 195.014109 78.591328 197.400751 C 75.31964 199.767503 71.162906 200.940936 66.131071 200.940936 C 61.218567 200.940936 57.081722 199.767503 53.710591 197.400751 C 50.379237 195.014109 47.485435 191.23526 45.029183 186.074148 Z M 18.358465 95.779547 C 17.324253 93.86029 16.548595 92.587415 16.051378 91.960921 C 15.544217 91.29465 14.838169 90.966487 13.923289 90.966487 C 11.844923 90.966487 10.810711 92.05042 10.810711 94.22823 C 10.810711 94.765225 11.327817 96.187265 12.362028 98.524185 L 49.51408 178.337452 C 52.059831 183.876449 54.466361 187.744797 56.73367 189.942496 C 59.000979 192.15014 61.735673 193.253961 64.947694 193.253961 C 67.901163 193.253961 69.38287 192.090474 69.38287 189.753554 C 69.38287 187.804463 68.109994 186.640976 65.564243 186.263091 C 64.400756 186.143759 63.386433 185.915039 62.541164 185.606764 C 61.685951 185.288545 60.900348 184.781384 60.184356 184.095225 C 59.488252 183.369288 58.782204 182.394743 58.056267 181.171589 C 57.360164 179.938491 56.574561 178.287731 55.699459 176.209364 Z M 77.497451 141.80195 L 97.22702 95.96849 C 98.141899 93.671347 98.599339 92.259251 98.599339 91.722257 C 98.599339 89.673723 97.435851 88.6594 95.108875 88.6594 C 94.223829 88.6594 93.547614 88.908009 93.08023 89.41517 C 92.632735 89.912387 92.02613 91.145485 91.240528 93.094576 L 71.550736 138.928036 C 71.143018 139.932414 70.844688 140.727961 70.655745 141.334566 C 70.466803 141.901393 70.377304 142.388666 70.377304 142.796384 C 70.377304 143.800762 70.685578 144.606253 71.322016 145.202914 C 71.978342 145.769741 72.833555 146.048183 73.867767 146.048183 C 75.160531 146.048183 76.184798 145.153192 76.930623 143.363211 Z M 16.807148 80.91276 C 15.792825 80.91276 14.897835 81.310534 14.112232 82.096137 C 13.326629 82.851906 12.928856 83.746897 12.928856 84.781108 C 12.928856 85.825264 13.326629 86.740143 14.112232 87.525746 C 14.897835 88.281516 15.792825 88.6594 16.807148 88.6594 C 17.841359 88.6594 18.73635 88.281516 19.492119 87.525746 C 20.277722 86.740143 20.675496 85.825264 20.675496 84.781108 C 20.675496 83.746897 20.277722 82.851906 19.492119 82.096137 C 18.73635 81.310534 17.841359 80.91276 16.807148 80.91276 Z M 100.538485 80.117213 C 99.494329 80.117213 98.589394 80.505042 97.793847 81.290645 C 97.038077 82.076248 96.660192 82.971238 96.660192 83.985561 C 96.660192 85.019772 97.038077 85.934652 97.793847 86.720254 C 98.589394 87.476024 99.494329 87.853909 100.538485 87.853909 C 101.572696 87.853909 102.49752 87.476024 103.3229 86.720254 C 104.168169 85.934652 104.595775 85.019772 104.595775 83.985561 C 104.595775 82.971238 104.168169 82.076248 103.3229 81.290645 C 102.49752 80.505042 101.572696 80.117213 100.538485 80.117213 Z M 206.674418 67.557512 C 216.081763 67.557512 224.902392 69.337549 233.146249 72.887678 C 241.390107 76.447752 248.56992 81.320478 254.675744 87.525746 C 260.811401 93.691236 265.654295 100.900882 269.214368 109.144739 C 272.764497 117.388597 274.544534 126.209226 274.544534 135.616571 C 274.544534 145.023916 272.764497 153.854489 269.214368 162.098346 C 265.654295 170.342204 260.811401 177.531961 254.675744 183.667618 C 248.56992 189.773442 241.390107 194.606391 233.146249 198.156521 C 224.902392 201.716594 216.081763 203.496631 206.674418 203.496631 C 197.257129 203.496631 188.4365 201.716594 180.192643 198.156521 C 171.948785 194.606391 164.729195 189.773442 158.523927 183.667618 C 152.328604 177.531961 147.445933 170.342204 143.895804 162.098346 C 140.365564 153.854489 138.605416 145.023916 138.605416 135.616571 C 138.605416 126.209226 140.365564 117.388597 143.895804 109.144739 C 147.445933 100.900882 152.328604 93.691236 158.523927 87.525746 C 164.729195 81.320478 171.948785 76.447752 180.192643 72.887678 C 188.4365 69.337549 197.257129 67.557512 206.674418 67.557512 Z M 206.674418 110.26845 C 203.174011 110.26845 199.892379 110.914832 196.809634 112.207596 C 193.726888 113.50036 191.051861 115.31023 188.784552 117.637205 C 186.517242 119.964181 184.707373 122.669041 183.354942 125.751786 C 182.002512 128.834531 181.326297 132.126108 181.326297 135.616571 C 181.326297 139.116978 181.972679 142.39861 183.255499 145.481355 C 184.548263 148.5641 186.358133 151.239128 188.685108 153.506437 C 191.012084 155.773746 193.726888 157.583616 196.809634 158.936046 C 199.892379 160.288476 203.174011 160.964692 206.674418 160.964692 C 210.164881 160.964692 213.446513 160.288476 216.539203 158.936046 C 219.621948 157.583616 222.296975 155.773746 224.55434 153.506437 C 226.82165 151.239128 228.631519 148.5641 229.983949 145.481355 C 231.33638 142.39861 232.012595 139.116978 232.012595 135.616571 C 232.012595 132.126108 231.33638 128.834531 229.983949 125.751786 C 228.631519 122.669041 226.82165 119.964181 224.55434 117.637205 C 222.296975 115.31023 219.621948 113.50036 216.539203 112.207596 C 213.446513 110.914832 210.164881 110.26845 206.674418 110.26845 Z M 153.094318 135.238686 C 153.094318 130.584735 153.840143 125.781619 155.32185 120.849227 C 156.823445 115.877057 158.732758 111.511492 161.029901 107.772421 C 162.064112 106.360324 162.680661 105.395724 162.869603 104.888562 C 163.058546 104.361512 163.148045 103.774796 163.148045 103.148303 C 163.148045 101.069936 162.193388 100.035725 160.274131 100.035725 C 158.862035 100.035725 157.380328 101.199212 155.838956 103.526188 C 153.004819 107.772421 150.73751 112.834089 149.037028 118.721138 C 147.376323 124.578354 146.540998 130.395793 146.540998 136.183398 C 146.540998 144.427255 148.112204 152.203729 151.254615 159.502874 C 154.436804 166.772186 158.762591 173.116674 164.241922 178.526395 C 169.711309 183.936115 176.145296 188.202237 183.543885 191.314815 C 190.972306 194.39756 198.868112 195.938933 207.241245 195.938933 C 211.76592 195.938933 216.380093 195.391994 221.063877 194.288173 C 225.787438 193.184351 230.003838 191.613145 233.713077 189.564611 C 235.791444 188.5304 236.835599 187.237636 236.835599 185.696263 C 236.835599 184.781384 236.567102 184.01567 236.030108 183.389177 C 235.522946 182.722906 234.816898 182.394743 233.902019 182.394743 C 233.524134 182.394743 233.146249 182.50413 232.768364 182.722906 C 232.39048 182.911848 231.495489 183.319566 230.083393 183.956004 C 222.336753 187.565799 214.600057 189.375669 206.863361 189.375669 C 199.365329 189.375669 192.364514 187.963573 185.850972 185.129436 C 179.377207 182.265466 173.708933 178.397118 168.86604 173.524392 C 164.05298 168.611888 160.214465 162.874005 157.350495 156.290852 C 154.516358 149.717644 153.094318 142.69694 153.094318 135.238686 Z M 245.70595 136.37234 C 245.70595 130.714011 244.701572 125.473345 242.682871 120.660284 C 240.703947 115.807447 237.95931 111.630824 234.468846 108.100584 C 231.008216 104.550455 226.851483 101.775984 222.008589 99.797061 C 217.195529 97.77836 212.024473 96.773981 206.485476 96.773981 C 203.899947 96.773981 201.38403 96.992757 198.927778 97.430308 C 196.471526 97.877803 194.323549 98.454575 192.463957 99.180511 C 190.604366 99.876615 189.132604 100.672162 188.028782 101.587042 C 186.92496 102.501921 186.378022 103.476466 186.378022 104.510677 C 186.378022 106.688488 187.332678 107.772421 189.251936 107.772421 C 189.78893 107.772421 190.763475 107.454202 192.175571 106.827708 C 196.809634 104.500733 201.702248 103.337245 206.863361 103.337245 C 211.517311 103.337245 215.793377 104.17257 219.701503 105.833274 C 223.629517 107.503923 227.040425 109.860732 229.944172 112.913644 C 232.867808 115.936723 235.135117 119.476908 236.736156 123.534198 C 238.337194 127.591489 239.142686 131.957054 239.142686 136.611005 C 239.142686 138.530262 238.983576 140.320243 238.675302 141.990892 C 238.357083 143.661541 237.740534 145.660353 236.835599 147.987329 C 236.328438 149.528701 236.079829 150.503247 236.079829 150.910965 C 236.079829 151.666734 236.358271 152.342949 236.925098 152.93961 C 237.491926 153.506437 238.227807 153.794823 239.142686 153.794823 C 240.813335 153.794823 242.106099 152.691001 243.011034 150.483358 C 243.925913 148.5641 244.602128 146.346513 245.039679 143.830595 C 245.487174 141.314677 245.70595 138.828592 245.70595 136.37234 Z M 166.837395 91.533315 C 165.793239 91.533315 164.848527 91.931088 164.003258 92.716691 C 163.187822 93.472461 162.77016 94.367451 162.77016 95.401663 C 162.77016 96.56515 163.187822 97.54964 164.003258 98.335243 C 164.848527 99.091012 165.793239 99.468897 166.837395 99.468897 C 167.871606 99.468897 168.766597 99.091012 169.522366 98.335243 C 170.307969 97.54964 170.705743 96.56515 170.705743 95.401663 C 170.705743 94.367451 170.307969 93.472461 169.522366 92.716691 C 168.766597 91.931088 167.871606 91.533315 166.837395 91.533315 Z M 340.853388 169.079272 L 323.430906 191.6927 C 320.855322 195.024054 318.210128 197.400751 315.505267 198.822791 C 312.800407 200.234887 309.638107 200.940936 306.018368 200.940936 C 303.054955 200.940936 300.290428 200.413886 297.7049 199.339897 C 295.129316 198.236075 292.881896 196.724536 290.962638 194.805278 C 289.043381 192.856188 287.531841 190.588878 286.428019 188.013294 C 285.324198 185.427766 284.777259 182.66324 284.777259 179.699827 C 284.777259 174.419383 286.587129 169.457157 290.206868 164.83304 L 314.18267 133.876311 L 295.964641 109.711567 C 292.881896 105.584666 290.694141 102.143925 289.401377 99.369454 C 288.108613 96.604928 287.462231 93.9299 287.462231 91.344372 C 287.462231 88.510235 288.048947 85.805375 289.212434 83.229791 C 290.375922 80.644263 291.947128 78.396842 293.935995 76.477585 C 295.944752 74.528494 298.241894 72.967233 300.827423 71.803745 C 303.403006 70.640258 306.177477 70.063486 309.130946 70.063486 C 316.211316 70.063486 322.207752 73.285452 327.110311 79.739328 L 340.853388 98.90207 L 353.781029 81.66853 C 359.449303 73.931834 365.704292 70.063486 372.565886 70.063486 C 375.529299 70.063486 378.323659 70.610425 380.968853 71.714246 C 383.614047 72.808124 385.891301 74.339552 387.810558 76.288642 C 389.759649 78.2079 391.301022 80.455321 392.434676 83.040849 C 393.598164 85.616433 394.18488 88.321293 394.18488 91.15543 C 394.18488 95.938657 391.937459 101.348377 387.432674 107.394536 L 367.514162 133.876311 L 391.301022 165.021982 C 394.771596 169.526768 396.501911 174.479049 396.501911 179.888769 C 396.501911 182.852182 395.945028 185.586876 394.841206 188.102793 C 393.777162 190.618711 392.295455 192.856188 390.406031 194.805278 C 388.556384 196.724536 386.338796 198.236075 383.753268 199.339897 C 381.177684 200.413886 378.46288 200.940936 375.638687 200.940936 C 368.558318 200.940936 362.750823 197.927801 358.216205 191.881642 Z M 303.512394 186.074148 C 302.100298 185.82554 300.906977 185.049881 299.922488 183.767062 C 298.98772 182.474297 298.510392 180.992591 298.510392 179.321942 C 298.510392 177.502128 299.21644 175.751924 300.63848 174.091219 L 323.241963 144.725585 C 325.041889 142.39861 326.284931 140.399798 326.971091 138.739093 C 327.697027 137.038611 328.055024 135.47735 328.055024 134.065254 C 328.055024 132.265328 327.667194 130.445514 326.881592 128.585923 C 326.125822 126.696498 324.783336 124.468966 322.864078 121.883438 L 303.701337 96.157432 C 303.452728 95.779547 303.134509 95.312163 302.756624 94.745336 C 302.37874 94.148676 302.050576 93.591793 301.772135 93.094576 C 301.264974 92.05042 300.807534 91.374205 300.399816 91.065931 C 300.021931 90.747712 299.455104 90.588602 298.699334 90.588602 C 297.665123 90.588602 296.80991 90.916766 296.153583 91.583036 C 295.517145 92.20953 295.208871 93.024965 295.208871 94.039288 C 295.208871 95.73977 296.372359 98.126412 298.699334 101.209157 L 318.995731 128.446702 C 320.537103 130.773677 321.312762 132.643213 321.312762 134.065254 C 321.312762 135.47735 320.20894 137.476162 318.001297 140.051746 L 295.586756 169.268215 C 293.001228 172.609513 291.718408 175.960755 291.718408 179.321942 C 291.718408 183.070958 292.941562 186.332701 295.397813 189.097227 C 297.854065 191.861754 300.757812 193.253961 304.128943 193.253961 C 306.555362 193.253961 307.758627 192.020863 307.758627 189.564611 C 307.758627 187.903907 306.933247 186.859751 305.262598 186.452033 Z M 345.855391 104.093015 C 345.099621 105.127226 344.721736 106.101772 344.721736 107.016651 C 344.721736 107.901697 345.000178 108.667411 345.567005 109.333682 C 346.163665 109.960175 346.969157 110.26845 347.973535 110.26845 C 348.639806 110.26845 349.216578 110.089452 349.723739 109.711567 C 350.260733 109.333682 351.026447 108.428747 352.030826 107.016651 L 359.399581 97.340809 C 361.07023 95.262442 361.89561 93.780735 361.89561 92.905633 C 361.89561 91.861478 361.567447 91.036098 360.911121 90.39966 C 360.284627 89.743333 359.528858 89.41517 358.643811 89.41517 C 357.987485 89.41517 357.351047 89.64389 356.754387 90.121218 C 356.187559 90.558769 355.382068 91.483593 354.347857 92.905633 Z M 350.718173 159.592373 C 349.674017 158.428885 348.699472 157.852113 347.784593 157.852113 C 345.616727 157.852113 344.532794 158.886325 344.532794 160.964692 C 344.532794 161.471853 344.652126 162.018792 344.910679 162.615452 C 345.159287 163.182279 345.746003 164.047437 346.650938 165.210924 L 362.701102 186.829918 C 364.620359 189.415446 366.479951 191.255149 368.269932 192.349026 C 370.09969 193.452848 372.158168 194.009731 374.455311 194.009731 C 377.448557 194.009731 378.940208 192.776633 378.940208 190.320381 C 378.940208 189.445279 378.612045 188.719343 377.945774 188.152515 C 377.319281 187.555855 376.096127 187.197859 374.266368 187.068582 C 373.639875 187.068582 373.053159 186.969139 372.516165 186.780196 C 372.018948 186.561421 371.462065 186.233258 370.865404 185.795707 C 370.298577 185.348212 369.652195 184.671996 368.936202 183.767062 C 368.240099 182.852182 367.315275 181.688695 366.151787 180.266654 Z M 297.893843 84.403223 C 297.893843 85.417546 298.291616 86.312536 299.077219 87.098139 C 299.862822 87.883742 300.757812 88.281516 301.772135 88.281516 C 302.935623 88.281516 303.890279 87.883742 304.646049 87.098139 C 305.431652 86.312536 305.829425 85.417546 305.829425 84.403223 C 305.829425 83.369012 305.431652 82.474021 304.646049 81.718252 C 303.890279 80.932649 302.935623 80.534875 301.772135 80.534875 C 300.757812 80.534875 299.862822 80.932649 299.077219 81.718252 C 298.291616 82.474021 297.893843 83.369012 297.893843 84.403223 Z M 365.207075 81.479588 C 364.16292 81.479588 363.257985 81.877361 362.462438 82.662964 C 361.716612 83.418734 361.338727 84.37339 361.338727 85.536878 C 361.338727 86.581034 361.716612 87.495913 362.462438 88.281516 C 363.257985 89.037285 364.16292 89.41517 365.207075 89.41517 C 366.241287 89.41517 367.106444 89.037285 367.802548 88.281516 C 368.528485 87.495913 368.886481 86.581034 368.886481 85.536878 C 368.886481 84.37339 368.528485 83.418734 367.802548 82.662964 C 367.106444 81.877361 366.241287 81.479588 365.207075 81.479588 Z M 410.43393 96.585039 C 410.43393 92.05042 410.692483 88.579846 411.1897 86.153427 C 411.726694 83.697175 412.760906 81.3702 414.302278 79.172501 C 416.102204 76.338364 418.538567 74.120776 421.621312 72.509793 C 424.73389 70.878922 428.105021 70.063486 431.724761 70.063486 C 435.433999 70.063486 438.924462 70.998254 442.206094 72.887678 C 445.507615 74.74727 448.073255 77.293021 449.893069 80.534875 C 451.026723 82.583409 451.812326 84.741331 452.259821 87.00864 C 452.727205 89.266005 452.96587 92.468082 452.96587 96.585039 L 452.96587 174.469104 C 452.96587 178.993779 452.667539 182.484242 452.070879 184.940494 C 451.504052 187.366912 450.509618 189.683943 449.097522 191.881642 C 447.16832 194.835111 444.652402 197.092476 441.539824 198.633849 C 438.457079 200.175221 435.185391 200.940936 431.724761 200.940936 C 427.856413 200.940936 424.266506 200.045945 420.964986 198.255964 C 417.693298 196.456039 415.137603 193.940121 413.317789 190.698266 C 412.184134 188.5304 411.408476 186.312812 411.000758 184.045503 C 410.622873 181.778194 410.43393 178.586061 410.43393 174.469104 Z M 424.167063 88.281516 C 425.211219 88.281516 426.106209 87.883742 426.861979 87.098139 C 427.647582 86.312536 428.045355 85.417546 428.045355 84.403223 C 428.045355 83.369012 427.647582 82.474021 426.861979 81.718252 C 426.106209 80.932649 425.211219 80.534875 424.167063 80.534875 C 423.132852 80.534875 422.217972 80.932649 421.43237 81.718252 C 420.6766 82.474021 420.298715 83.369012 420.298715 84.403223 C 420.298715 85.417546 420.6766 86.312536 421.43237 87.098139 C 422.217972 87.883742 423.132852 88.281516 424.167063 88.281516 Z M 430.730327 186.829918 C 428.154743 186.332701 426.434372 185.238824 425.589103 183.578119 C 424.773668 181.90747 424.356005 178.615894 424.356005 173.713335 L 424.356005 96.585039 C 424.356005 94.128787 424.157119 92.527748 423.749401 91.771979 C 423.371516 90.986376 422.476525 90.588602 421.054485 90.588602 C 419.642389 90.588602 418.747398 90.986376 418.369513 91.771979 C 417.991628 92.527748 417.802686 94.128787 417.802686 96.585039 L 417.802686 174.886767 C 417.802686 178.605949 417.922018 181.370476 418.180571 183.200234 C 418.429179 184.990215 419.005951 186.591254 419.92083 188.013294 C 421.084318 189.803276 422.595857 191.185539 424.455449 192.160084 C 426.31504 193.144574 428.274075 193.631846 430.352442 193.631846 C 433.315855 193.631846 434.787617 192.398748 434.787617 189.942496 C 434.787617 188.281792 434.021903 187.317191 432.480531 187.068582 Z M 472.884381 96.396096 C 472.884381 90.578658 473.560596 86.063928 474.913026 82.851906 C 476.265457 79.610052 478.622265 76.905191 481.993396 74.727381 C 484.827533 72.907567 488.238441 71.803745 492.236065 71.42586 C 493.111167 71.306528 494.513319 71.207085 496.432577 71.147419 C 498.381667 71.077809 500.708643 71.047976 503.423447 71.047976 L 528.950566 71.047976 C 532.411196 71.047976 535.245333 71.077809 537.452976 71.147419 C 539.650675 71.207085 541.530155 71.366194 543.071528 71.614803 C 544.612901 71.873356 545.935498 72.201519 547.029375 72.609237 C 548.133197 72.987122 549.246963 73.563893 550.380617 74.349496 C 553.373863 76.020145 555.671006 78.307343 557.272044 81.201146 C 558.883027 84.094949 559.678575 87.227416 559.678575 90.588602 C 559.678575 93.552015 559.032193 96.445818 557.749373 99.279955 C 556.456609 102.104147 554.78596 104.421178 552.74737 106.211159 C 550.788335 108.040918 548.620469 109.28396 546.233828 109.940287 C 543.867075 110.576724 540.694831 110.884999 536.697206 110.884999 L 515.406376 110.884999 L 515.406376 119.765294 L 528.383739 119.765294 C 532.102922 119.765294 534.91717 119.934348 536.836427 120.282399 C 538.785518 120.590674 540.535721 121.256945 542.077094 122.261323 C 546.860321 125.125293 549.246963 129.391414 549.246963 135.049743 C 549.246963 145.342135 543.001918 150.483358 530.511827 150.483358 L 515.406376 150.483358 L 515.406376 174.469104 C 515.406376 178.993779 515.108046 182.484242 514.511386 184.940494 C 513.944558 187.366912 512.950124 189.683943 511.538028 191.881642 C 509.618771 194.715779 507.102853 196.933367 503.990275 198.534405 C 500.897585 200.145388 497.625897 200.940936 494.165267 200.940936 C 490.296919 200.940936 486.707013 200.045945 483.405492 198.255964 C 480.133805 196.456039 477.588054 193.940121 475.758295 190.698266 C 474.624641 188.659676 473.858926 186.501755 473.451209 184.234446 C 473.073324 181.967136 472.884381 178.854558 472.884381 174.886767 Z M 518.330012 143.174269 L 531.45654 143.174269 C 534.668561 143.174269 536.945815 142.85605 538.298245 142.229556 C 539.650675 141.563286 540.32689 140.399798 540.32689 138.739093 C 540.32689 136.53145 539.302623 135.427628 537.264034 135.427628 C 536.886149 135.427628 536.299433 135.556905 535.51383 135.805513 C 534.350342 136.064066 533.505074 136.213231 532.968079 136.282841 C 532.460918 136.342507 531.317319 136.37234 529.517394 136.37234 L 516.40081 136.37234 C 513.69595 136.37234 512.34352 137.535828 512.34352 139.862804 C 512.34352 142.070447 513.944558 143.174269 517.15658 143.174269 Z M 486.617514 80.534875 C 485.573358 80.534875 484.668423 80.962482 483.88282 81.807751 C 483.127051 82.633131 482.749166 83.557954 482.749166 84.592166 C 482.749166 85.606488 483.127051 86.501479 483.88282 87.287082 C 484.668423 88.072684 485.573358 88.470458 486.617514 88.470458 C 487.651725 88.470458 488.546716 88.072684 489.302485 87.287082 C 490.098033 86.501479 490.485862 85.606488 490.485862 84.592166 C 490.485862 83.557954 490.098033 82.633131 489.302485 81.807751 C 488.546716 80.962482 487.651725 80.534875 486.617514 80.534875 Z M 536.2696 103.526188 C 539.13357 103.526188 541.211937 103.396911 542.504701 103.148303 C 543.78752 102.88975 544.941064 102.442255 545.945442 101.775984 C 548.272417 100.363888 549.435905 98.822515 549.435905 97.151866 C 549.435905 96.236987 549.107742 95.471273 548.451416 94.834835 C 547.814978 94.178509 547.049264 93.850346 546.134384 93.850346 C 545.507891 93.850346 544.483624 94.307785 543.071528 95.21272 C 541.898096 95.849158 540.863885 96.306597 539.949005 96.585039 C 539.073904 96.833647 537.343589 96.962924 534.75806 96.962924 L 518.330012 96.773981 L 516.162146 96.773981 C 513.616395 96.773981 512.34352 97.857914 512.34352 100.035725 C 512.34352 101.447821 512.721404 102.392533 513.477174 102.859917 C 514.262777 103.307412 515.883704 103.526188 518.330012 103.526188 Z M 486.806456 96.585039 C 486.806456 94.128787 486.597625 92.527748 486.189907 91.771979 C 485.812022 90.986376 484.917032 90.588602 483.504936 90.588602 C 482.082895 90.588602 481.158071 91.016209 480.720521 91.861478 C 480.273025 92.686858 480.05425 94.258064 480.05425 96.585039 L 480.243192 174.886767 C 480.243192 178.605949 480.372469 181.370476 480.621077 183.200234 C 480.869686 184.990215 481.456402 186.591254 482.371281 188.013294 C 483.534769 189.803276 485.046308 191.185539 486.895955 192.160084 C 488.755547 193.144574 490.724526 193.631846 492.802893 193.631846 C 495.756362 193.631846 497.238068 192.398748 497.238068 189.942496 C 497.238068 188.281792 496.46241 187.317191 494.921037 187.068582 L 493.180778 186.829918 C 490.724526 186.452033 488.974322 185.238824 487.940111 183.200234 C 487.43295 182.285355 487.114731 181.241199 486.995399 180.077712 C 486.866122 178.914224 486.806456 176.79608 486.806456 173.713335 Z M 598.153223 145.85924 L 569.364361 103.71513 C 567.952265 101.795873 566.878276 99.697617 566.152339 97.430308 C 565.46618 95.172943 565.118128 92.955355 565.118128 90.777545 C 565.118128 87.943408 565.655123 85.268381 566.719167 82.752463 C 567.822988 80.236545 569.334528 78.04879 571.253786 76.199143 C 573.202876 74.309719 575.440352 72.808124 577.95627 71.714246 C 580.472188 70.610425 583.206881 70.063486 586.170295 70.063486 C 594.414152 70.063486 601.176303 74.130721 606.466691 82.285079 L 619.821939 102.581476 L 634.121899 81.66853 C 639.531619 73.931834 645.985495 70.063486 653.473583 70.063486 C 656.30772 70.063486 658.992691 70.610425 661.548386 71.714246 C 664.12397 72.808124 666.371391 74.339552 668.290648 76.288642 C 670.249683 78.2079 671.801 80.455321 672.964488 83.040849 C 674.127976 85.616433 674.714692 88.321293 674.714692 91.15543 C 674.714692 95.660215 673.421928 99.777172 670.846344 103.526188 L 640.874105 146.426067 L 640.874105 174.469104 C 640.874105 178.993779 640.575775 182.484242 639.979114 184.940494 C 639.412287 187.366912 638.417853 189.683943 636.995813 191.881642 C 635.076555 194.715779 632.560637 196.933367 629.448059 198.534405 C 626.365314 200.145388 623.03396 200.940936 619.444054 200.940936 C 615.695038 200.940936 612.174742 200.045945 608.873221 198.255964 C 605.601533 196.456039 603.065727 193.940121 601.265802 190.698266 C 600.102314 188.5304 599.286878 186.312812 598.819494 184.045503 C 598.371999 181.778194 598.153223 178.586061 598.153223 174.469104 Z M 641.063047 96.585039 C 641.84865 95.550828 642.365756 94.745336 642.614364 94.178509 C 642.872917 93.581848 642.992249 93.024965 642.992249 92.527748 C 642.992249 91.483593 642.693919 90.658213 642.097259 90.021775 C 641.530431 89.365449 640.744829 89.037285 639.74045 89.037285 C 638.954848 89.037285 638.288577 89.266005 637.751582 89.743333 C 637.254365 90.180884 636.498596 91.175318 635.494217 92.716691 L 625.44049 107.016651 C 624.147726 109.065185 623.501344 110.417615 623.501344 111.073941 C 623.501344 111.98882 623.819563 112.754535 624.446056 113.390972 C 625.102383 114.017466 625.937707 114.335685 626.95203 114.335685 C 627.986241 114.335685 629.398337 113.182141 631.198263 110.884999 Z M 579.418088 80.117213 C 578.373932 80.117213 577.498831 80.505042 576.772894 81.290645 C 576.07679 82.076248 575.738683 83.050793 575.738683 84.214281 C 575.738683 85.228603 576.07679 86.123594 576.772894 86.909197 C 577.498831 87.664967 578.373932 88.042851 579.418088 88.042851 C 580.452299 88.042851 581.357234 87.664967 582.10306 86.909197 C 582.898607 86.123594 583.286436 85.228603 583.286436 84.214281 C 583.286436 83.050793 582.898607 82.076248 582.10306 81.290645 C 581.357234 80.505042 580.452299 80.117213 579.418088 80.117213 Z M 642.236479 84.214281 C 642.236479 85.228603 642.614364 86.123594 643.370134 86.909197 C 644.155737 87.664967 645.070616 88.042851 646.114772 88.042851 C 647.27826 88.042851 648.203083 87.664967 648.899187 86.909197 C 649.615179 86.123594 649.98312 85.228603 649.98312 84.214281 C 649.98312 83.050793 649.615179 82.076248 648.899187 81.290645 C 648.203083 80.505042 647.27826 80.117213 646.114772 80.117213 C 645.070616 80.117213 644.155737 80.505042 643.370134 81.290645 C 642.614364 82.076248 642.236479 83.050793 642.236479 84.214281 Z M 612.264241 149.359648 L 612.264241 146.853674 C 612.264241 144.526699 611.995744 142.587553 611.468694 141.04618 C 610.961532 139.504807 609.877599 137.565661 608.20695 135.238686 L 581.725175 97.340809 C 580.82024 96.048045 580.203691 95.153054 579.885472 94.645893 C 579.577198 94.118843 579.288812 93.532127 579.040203 92.905633 C 578.503209 91.861478 578.005992 91.15543 577.528664 90.777545 C 577.091113 90.369827 576.554118 90.17094 575.927625 90.17094 C 573.719982 90.17094 572.61616 91.264817 572.61616 93.472461 C 572.61616 94.506672 573.013934 95.699993 573.799536 97.062367 C 574.585139 98.414797 575.877903 100.443443 577.667884 103.148303 L 602.399456 138.928036 L 603.771775 141.04618 C 604.527545 142.209668 604.965096 143.124547 605.094372 143.780873 C 605.253482 144.417311 605.392702 145.690186 605.521979 147.609444 L 605.521979 177.581683 C 605.521979 182.742795 606.605912 186.700642 608.773778 189.475112 C 610.981421 192.239639 614.143721 193.631846 618.260677 193.631846 C 621.224091 193.631846 622.695853 192.398748 622.695853 189.942496 C 622.695853 188.281792 621.860528 187.317191 620.199824 187.068582 L 618.638562 186.829918 C 616.062978 186.452033 614.342608 185.427766 613.497339 183.767062 C 612.681903 182.096413 612.264241 179.063389 612.264241 174.658047 Z M 612.264241 149.359648 " stroke="#270076" stroke-width="13.050045" stroke-opacity="1" stroke-miterlimit="4"/><g fill="#5e17eb" fill-opacity="1"><g transform="translate(51.589367, 213.032734)"><g><path d="M 2.203125 -38.953125 C 1.597656 -40.316406 1.296875 -41.632812 1.296875 -42.90625 C 1.296875 -44.019531 1.519531 -45.066406 1.96875 -46.046875 C 2.425781 -47.035156 3.035156 -47.894531 3.796875 -48.625 C 4.554688 -49.363281 5.453125 -49.945312 6.484375 -50.375 C 7.523438 -50.8125 8.628906 -51.03125 9.796875 -51.03125 C 13.546875 -51.03125 16.304688 -48.929688 18.078125 -44.734375 L 26.046875 -25.75 L 34.328125 -45.265625 C 35.128906 -47.128906 36.210938 -48.554688 37.578125 -49.546875 C 38.953125 -50.535156 40.550781 -51.03125 42.375 -51.03125 C 43.488281 -51.03125 44.550781 -50.8125 45.5625 -50.375 C 46.570312 -49.945312 47.457031 -49.351562 48.21875 -48.59375 C 48.976562 -47.84375 49.582031 -46.972656 50.03125 -45.984375 C 50.488281 -44.992188 50.71875 -43.941406 50.71875 -42.828125 C 50.71875 -41.515625 50.289062 -39.945312 49.4375 -38.125 L 34.40625 -5.84375 C 33.34375 -3.570312 32.164062 -1.96875 30.875 -1.03125 C 29.582031 -0.09375 27.945312 0.375 25.96875 0.375 C 24.039062 0.375 22.421875 -0.09375 21.109375 -1.03125 C 19.796875 -1.96875 18.65625 -3.445312 17.6875 -5.46875 Z M 7.21875 -40.9375 C 6.8125 -41.6875 6.503906 -42.1875 6.296875 -42.4375 C 6.097656 -42.695312 5.820312 -42.828125 5.46875 -42.828125 C 4.65625 -42.828125 4.25 -42.394531 4.25 -41.53125 C 4.25 -41.332031 4.453125 -40.78125 4.859375 -39.875 L 19.4375 -8.5 C 20.445312 -6.320312 21.394531 -4.800781 22.28125 -3.9375 C 23.164062 -3.082031 24.242188 -2.65625 25.515625 -2.65625 C 26.679688 -2.65625 27.265625 -3.113281 27.265625 -4.03125 C 27.265625 -4.78125 26.757812 -5.234375 25.75 -5.390625 C 25.289062 -5.441406 24.894531 -5.53125 24.5625 -5.65625 C 24.238281 -5.78125 23.9375 -5.984375 23.65625 -6.265625 C 23.375 -6.546875 23.09375 -6.925781 22.8125 -7.40625 C 22.539062 -7.882812 22.226562 -8.53125 21.875 -9.34375 Z M 30.453125 -22.859375 L 38.203125 -40.859375 C 38.554688 -41.765625 38.734375 -42.320312 38.734375 -42.53125 C 38.734375 -43.332031 38.273438 -43.734375 37.359375 -43.734375 C 37.003906 -43.734375 36.738281 -43.628906 36.5625 -43.421875 C 36.382812 -43.222656 36.144531 -42.75 35.84375 -42 L 28.09375 -24 C 27.945312 -23.59375 27.832031 -23.273438 27.75 -23.046875 C 27.675781 -22.816406 27.640625 -22.628906 27.640625 -22.484375 C 27.640625 -22.078125 27.765625 -21.757812 28.015625 -21.53125 C 28.273438 -21.300781 28.609375 -21.1875 29.015625 -21.1875 C 29.515625 -21.1875 29.914062 -21.539062 30.21875 -22.25 Z M 6.609375 -46.78125 C 6.203125 -46.78125 5.847656 -46.625 5.546875 -46.3125 C 5.242188 -46.007812 5.09375 -45.660156 5.09375 -45.265625 C 5.09375 -44.859375 5.242188 -44.5 5.546875 -44.1875 C 5.847656 -43.882812 6.203125 -43.734375 6.609375 -43.734375 C 7.015625 -43.734375 7.367188 -43.882812 7.671875 -44.1875 C 7.972656 -44.5 8.125 -44.859375 8.125 -45.265625 C 8.125 -45.660156 7.972656 -46.007812 7.671875 -46.3125 C 7.367188 -46.625 7.015625 -46.78125 6.609375 -46.78125 Z M 39.484375 -47.078125 C 39.078125 -47.078125 38.722656 -46.925781 38.421875 -46.625 C 38.117188 -46.320312 37.96875 -45.96875 37.96875 -45.5625 C 37.96875 -45.15625 38.117188 -44.800781 38.421875 -44.5 C 38.722656 -44.195312 39.078125 -44.046875 39.484375 -44.046875 C 39.890625 -44.046875 40.253906 -44.195312 40.578125 -44.5 C 40.910156 -44.800781 41.078125 -45.15625 41.078125 -45.5625 C 41.078125 -45.96875 40.910156 -46.320312 40.578125 -46.625 C 40.253906 -46.925781 39.890625 -47.078125 39.484375 -47.078125 Z M 39.484375 -47.078125 "/></g></g></g><g fill="#5e17eb" fill-opacity="1"><g transform="translate(103.533354, 213.032734)"><g><path d="M 29.234375 -52.015625 C 32.929688 -52.015625 36.398438 -51.316406 39.640625 -49.921875 C 42.878906 -48.535156 45.703125 -46.625 48.109375 -44.1875 C 50.515625 -41.757812 52.410156 -38.925781 53.796875 -35.6875 C 55.191406 -32.445312 55.890625 -28.976562 55.890625 -25.28125 C 55.890625 -21.59375 55.191406 -18.128906 53.796875 -14.890625 C 52.410156 -11.648438 50.515625 -8.828125 48.109375 -6.421875 C 45.703125 -4.015625 42.878906 -2.113281 39.640625 -0.71875 C 36.398438 0.664062 32.929688 1.359375 29.234375 1.359375 C 25.535156 1.359375 22.066406 0.664062 18.828125 -0.71875 C 15.585938 -2.113281 12.753906 -4.015625 10.328125 -6.421875 C 7.898438 -8.828125 5.988281 -11.648438 4.59375 -14.890625 C 3.195312 -18.128906 2.5 -21.59375 2.5 -25.28125 C 2.5 -28.976562 3.195312 -32.445312 4.59375 -35.6875 C 5.988281 -38.925781 7.898438 -41.757812 10.328125 -44.1875 C 12.753906 -46.625 15.585938 -48.535156 18.828125 -49.921875 C 22.066406 -51.316406 25.535156 -52.015625 29.234375 -52.015625 Z M 29.234375 -35.234375 C 27.867188 -35.234375 26.578125 -34.976562 25.359375 -34.46875 C 24.148438 -33.96875 23.101562 -33.257812 22.21875 -32.34375 C 21.332031 -31.4375 20.617188 -30.375 20.078125 -29.15625 C 19.546875 -27.945312 19.28125 -26.65625 19.28125 -25.28125 C 19.28125 -23.914062 19.535156 -22.625 20.046875 -21.40625 C 20.554688 -20.195312 21.265625 -19.148438 22.171875 -18.265625 C 23.085938 -17.378906 24.148438 -16.671875 25.359375 -16.140625 C 26.578125 -15.609375 27.867188 -15.34375 29.234375 -15.34375 C 30.597656 -15.34375 31.890625 -15.609375 33.109375 -16.140625 C 34.328125 -16.671875 35.378906 -17.378906 36.265625 -18.265625 C 37.148438 -19.148438 37.859375 -20.195312 38.390625 -21.40625 C 38.921875 -22.625 39.1875 -23.914062 39.1875 -25.28125 C 39.1875 -26.65625 38.921875 -27.945312 38.390625 -29.15625 C 37.859375 -30.375 37.148438 -31.4375 36.265625 -32.34375 C 35.378906 -33.257812 34.328125 -33.96875 33.109375 -34.46875 C 31.890625 -34.976562 30.597656 -35.234375 29.234375 -35.234375 Z M 8.203125 -25.4375 C 8.203125 -27.257812 8.492188 -29.144531 9.078125 -31.09375 C 9.660156 -33.039062 10.40625 -34.75 11.3125 -36.21875 C 11.71875 -36.78125 11.957031 -37.160156 12.03125 -37.359375 C 12.113281 -37.566406 12.15625 -37.796875 12.15625 -38.046875 C 12.15625 -38.859375 11.773438 -39.265625 11.015625 -39.265625 C 10.453125 -39.265625 9.867188 -38.804688 9.265625 -37.890625 C 8.148438 -36.222656 7.265625 -34.238281 6.609375 -31.9375 C 5.953125 -29.632812 5.625 -27.34375 5.625 -25.0625 C 5.625 -21.820312 6.242188 -18.769531 7.484375 -15.90625 C 8.722656 -13.050781 10.414062 -10.554688 12.5625 -8.421875 C 14.71875 -6.296875 17.25 -4.625 20.15625 -3.40625 C 23.070312 -2.195312 26.175781 -1.59375 29.46875 -1.59375 C 31.238281 -1.59375 33.046875 -1.804688 34.890625 -2.234375 C 36.742188 -2.671875 38.40625 -3.289062 39.875 -4.09375 C 40.675781 -4.5 41.078125 -5.007812 41.078125 -5.625 C 41.078125 -5.976562 40.972656 -6.28125 40.765625 -6.53125 C 40.566406 -6.78125 40.289062 -6.90625 39.9375 -6.90625 C 39.789062 -6.90625 39.640625 -6.867188 39.484375 -6.796875 C 39.335938 -6.722656 38.984375 -6.554688 38.421875 -6.296875 C 35.390625 -4.878906 32.351562 -4.171875 29.3125 -4.171875 C 26.375 -4.171875 23.625 -4.726562 21.0625 -5.84375 C 18.507812 -6.957031 16.285156 -8.476562 14.390625 -10.40625 C 12.492188 -12.332031 10.988281 -14.582031 9.875 -17.15625 C 8.757812 -19.738281 8.203125 -22.5 8.203125 -25.4375 Z M 44.578125 -24.984375 C 44.578125 -27.210938 44.179688 -29.273438 43.390625 -31.171875 C 42.609375 -33.066406 41.535156 -34.710938 40.171875 -36.109375 C 38.804688 -37.503906 37.171875 -38.59375 35.265625 -39.375 C 33.367188 -40.15625 31.332031 -40.546875 29.15625 -40.546875 C 28.144531 -40.546875 27.15625 -40.457031 26.1875 -40.28125 C 25.226562 -40.101562 24.378906 -39.875 23.640625 -39.59375 C 22.910156 -39.320312 22.332031 -39.007812 21.90625 -38.65625 C 21.476562 -38.300781 21.265625 -37.921875 21.265625 -37.515625 C 21.265625 -36.648438 21.644531 -36.21875 22.40625 -36.21875 C 22.601562 -36.21875 22.984375 -36.347656 23.546875 -36.609375 C 25.367188 -37.515625 27.289062 -37.96875 29.3125 -37.96875 C 31.132812 -37.96875 32.816406 -37.640625 34.359375 -36.984375 C 35.898438 -36.328125 37.238281 -35.398438 38.375 -34.203125 C 39.519531 -33.015625 40.410156 -31.625 41.046875 -30.03125 C 41.679688 -28.4375 42 -26.726562 42 -24.90625 C 42 -24.144531 41.929688 -23.4375 41.796875 -22.78125 C 41.671875 -22.125 41.429688 -21.335938 41.078125 -20.421875 C 40.878906 -19.816406 40.78125 -19.4375 40.78125 -19.28125 C 40.78125 -18.976562 40.894531 -18.710938 41.125 -18.484375 C 41.351562 -18.265625 41.644531 -18.15625 42 -18.15625 C 42.65625 -18.15625 43.160156 -18.582031 43.515625 -19.4375 C 43.867188 -20.195312 44.132812 -21.070312 44.3125 -22.0625 C 44.488281 -23.050781 44.578125 -24.023438 44.578125 -24.984375 Z M 13.59375 -42.59375 C 13.1875 -42.59375 12.816406 -42.441406 12.484375 -42.140625 C 12.160156 -41.835938 12 -41.484375 12 -41.078125 C 12 -40.628906 12.160156 -40.25 12.484375 -39.9375 C 12.816406 -39.632812 13.1875 -39.484375 13.59375 -39.484375 C 14 -39.484375 14.351562 -39.632812 14.65625 -39.9375 C 14.957031 -40.25 15.109375 -40.628906 15.109375 -41.078125 C 15.109375 -41.484375 14.957031 -41.835938 14.65625 -42.140625 C 14.351562 -42.441406 14 -42.59375 13.59375 -42.59375 Z M 13.59375 -42.59375 "/></g></g></g><g fill="#5e17eb" fill-opacity="1"><g transform="translate(161.932369, 213.032734)"><g><path d="M 23.546875 -12.15625 L 16.703125 -3.265625 C 15.691406 -1.953125 14.65625 -1.015625 13.59375 -0.453125 C 12.53125 0.0976562 11.289062 0.375 9.875 0.375 C 8.707031 0.375 7.617188 0.160156 6.609375 -0.265625 C 5.597656 -0.691406 4.710938 -1.285156 3.953125 -2.046875 C 3.191406 -2.804688 2.59375 -3.691406 2.15625 -4.703125 C 1.726562 -5.722656 1.515625 -6.8125 1.515625 -7.96875 C 1.515625 -10.050781 2.222656 -12.003906 3.640625 -13.828125 L 13.0625 -25.96875 L 5.921875 -35.46875 C 4.703125 -37.082031 3.835938 -38.429688 3.328125 -39.515625 C 2.828125 -40.609375 2.578125 -41.660156 2.578125 -42.671875 C 2.578125 -43.785156 2.804688 -44.847656 3.265625 -45.859375 C 3.722656 -46.878906 4.34375 -47.765625 5.125 -48.515625 C 5.90625 -49.273438 6.800781 -49.882812 7.8125 -50.34375 C 8.832031 -50.800781 9.925781 -51.03125 11.09375 -51.03125 C 13.875 -51.03125 16.226562 -49.765625 18.15625 -47.234375 L 23.546875 -39.71875 L 28.625 -46.46875 C 30.851562 -49.507812 33.3125 -51.03125 36 -51.03125 C 37.15625 -51.03125 38.253906 -50.8125 39.296875 -50.375 C 40.335938 -49.945312 41.234375 -49.351562 41.984375 -48.59375 C 42.742188 -47.84375 43.351562 -46.957031 43.8125 -45.9375 C 44.269531 -44.925781 44.5 -43.863281 44.5 -42.75 C 44.5 -40.875 43.613281 -38.75 41.84375 -36.375 L 34.015625 -25.96875 L 43.359375 -13.75 C 44.722656 -11.976562 45.40625 -10.023438 45.40625 -7.890625 C 45.40625 -6.734375 45.191406 -5.660156 44.765625 -4.671875 C 44.335938 -3.679688 43.753906 -2.804688 43.015625 -2.046875 C 42.285156 -1.285156 41.410156 -0.691406 40.390625 -0.265625 C 39.378906 0.160156 38.316406 0.375 37.203125 0.375 C 34.421875 0.375 32.144531 -0.8125 30.375 -3.1875 Z M 8.890625 -5.46875 C 8.328125 -5.570312 7.851562 -5.875 7.46875 -6.375 C 7.09375 -6.882812 6.90625 -7.46875 6.90625 -8.125 C 6.90625 -8.832031 7.1875 -9.515625 7.75 -10.171875 L 16.625 -21.71875 C 17.332031 -22.625 17.828125 -23.40625 18.109375 -24.0625 C 18.390625 -24.726562 18.53125 -25.335938 18.53125 -25.890625 C 18.53125 -26.597656 18.378906 -27.316406 18.078125 -28.046875 C 17.773438 -28.785156 17.242188 -29.660156 16.484375 -30.671875 L 8.953125 -40.78125 C 8.859375 -40.925781 8.734375 -41.113281 8.578125 -41.34375 C 8.429688 -41.570312 8.304688 -41.789062 8.203125 -42 C 7.992188 -42.394531 7.8125 -42.65625 7.65625 -42.78125 C 7.507812 -42.914062 7.285156 -42.984375 6.984375 -42.984375 C 6.578125 -42.984375 6.25 -42.851562 6 -42.59375 C 5.75 -42.34375 5.625 -42.015625 5.625 -41.609375 C 5.625 -40.953125 6.078125 -40.015625 6.984375 -38.796875 L 14.953125 -28.09375 C 15.566406 -27.1875 15.875 -26.453125 15.875 -25.890625 C 15.875 -25.335938 15.441406 -24.554688 14.578125 -23.546875 L 5.765625 -12.078125 C 4.753906 -10.753906 4.25 -9.4375 4.25 -8.125 C 4.25 -6.65625 4.726562 -5.375 5.6875 -4.28125 C 6.65625 -3.195312 7.796875 -2.65625 9.109375 -2.65625 C 10.078125 -2.65625 10.5625 -3.132812 10.5625 -4.09375 C 10.5625 -4.757812 10.226562 -5.164062 9.5625 -5.3125 Z M 25.515625 -37.671875 C 25.210938 -37.265625 25.0625 -36.882812 25.0625 -36.53125 C 25.0625 -36.175781 25.175781 -35.867188 25.40625 -35.609375 C 25.632812 -35.359375 25.945312 -35.234375 26.34375 -35.234375 C 26.601562 -35.234375 26.832031 -35.304688 27.03125 -35.453125 C 27.238281 -35.609375 27.539062 -35.96875 27.9375 -36.53125 L 30.828125 -40.328125 C 31.484375 -41.128906 31.8125 -41.707031 31.8125 -42.0625 C 31.8125 -42.46875 31.6875 -42.796875 31.4375 -43.046875 C 31.1875 -43.304688 30.882812 -43.4375 30.53125 -43.4375 C 30.269531 -43.4375 30.023438 -43.347656 29.796875 -43.171875 C 29.578125 -42.992188 29.265625 -42.625 28.859375 -42.0625 Z M 27.40625 -15.875 C 27.007812 -16.320312 26.632812 -16.546875 26.28125 -16.546875 C 25.414062 -16.546875 24.984375 -16.144531 24.984375 -15.34375 C 24.984375 -15.132812 25.03125 -14.914062 25.125 -14.6875 C 25.226562 -14.46875 25.457031 -14.128906 25.8125 -13.671875 L 32.125 -5.15625 C 32.882812 -4.144531 33.617188 -3.425781 34.328125 -3 C 35.035156 -2.570312 35.84375 -2.359375 36.75 -2.359375 C 37.914062 -2.359375 38.5 -2.835938 38.5 -3.796875 C 38.5 -4.148438 38.367188 -4.441406 38.109375 -4.671875 C 37.859375 -4.898438 37.378906 -5.039062 36.671875 -5.09375 C 36.421875 -5.09375 36.191406 -5.128906 35.984375 -5.203125 C 35.785156 -5.273438 35.570312 -5.398438 35.34375 -5.578125 C 35.113281 -5.753906 34.859375 -6.019531 34.578125 -6.375 C 34.304688 -6.726562 33.941406 -7.1875 33.484375 -7.75 Z M 6.6875 -45.40625 C 6.6875 -45 6.835938 -44.644531 7.140625 -44.34375 C 7.441406 -44.039062 7.796875 -43.890625 8.203125 -43.890625 C 8.660156 -43.890625 9.039062 -44.039062 9.34375 -44.34375 C 9.644531 -44.644531 9.796875 -45 9.796875 -45.40625 C 9.796875 -45.8125 9.644531 -46.164062 9.34375 -46.46875 C 9.039062 -46.769531 8.660156 -46.921875 8.203125 -46.921875 C 7.796875 -46.921875 7.441406 -46.769531 7.140625 -46.46875 C 6.835938 -46.164062 6.6875 -45.8125 6.6875 -45.40625 Z M 33.109375 -46.546875 C 32.703125 -46.546875 32.347656 -46.394531 32.046875 -46.09375 C 31.742188 -45.789062 31.59375 -45.410156 31.59375 -44.953125 C 31.59375 -44.546875 31.742188 -44.191406 32.046875 -43.890625 C 32.347656 -43.585938 32.703125 -43.4375 33.109375 -43.4375 C 33.515625 -43.4375 33.851562 -43.585938 34.125 -43.890625 C 34.40625 -44.191406 34.546875 -44.546875 34.546875 -44.953125 C 34.546875 -45.410156 34.40625 -45.789062 34.125 -46.09375 C 33.851562 -46.394531 33.515625 -46.546875 33.109375 -46.546875 Z M 33.109375 -46.546875 "/></g></g></g><g fill="#5e17eb" fill-opacity="1"><g transform="translate(208.86421, 213.032734)"><g><path d="M 3.953125 -40.625 C 3.953125 -42.394531 4.050781 -43.757812 4.25 -44.71875 C 4.457031 -45.6875 4.863281 -46.601562 5.46875 -47.46875 C 6.175781 -48.570312 7.132812 -49.441406 8.34375 -50.078125 C 9.5625 -50.710938 10.878906 -51.03125 12.296875 -51.03125 C 13.765625 -51.03125 15.144531 -50.660156 16.4375 -49.921875 C 17.726562 -49.191406 18.726562 -48.191406 19.4375 -46.921875 C 19.894531 -46.117188 20.210938 -45.273438 20.390625 -44.390625 C 20.566406 -43.503906 20.65625 -42.25 20.65625 -40.625 L 20.65625 -10.03125 C 20.65625 -8.25 20.539062 -6.878906 20.3125 -5.921875 C 20.082031 -4.960938 19.691406 -4.050781 19.140625 -3.1875 C 18.378906 -2.019531 17.390625 -1.132812 16.171875 -0.53125 C 14.960938 0.0703125 13.671875 0.375 12.296875 0.375 C 10.785156 0.375 9.382812 0.0195312 8.09375 -0.6875 C 6.800781 -1.394531 5.800781 -2.378906 5.09375 -3.640625 C 4.632812 -4.503906 4.328125 -5.378906 4.171875 -6.265625 C 4.023438 -7.148438 3.953125 -8.40625 3.953125 -10.03125 Z M 9.34375 -43.890625 C 9.75 -43.890625 10.101562 -44.039062 10.40625 -44.34375 C 10.707031 -44.644531 10.859375 -45 10.859375 -45.40625 C 10.859375 -45.8125 10.707031 -46.164062 10.40625 -46.46875 C 10.101562 -46.769531 9.75 -46.921875 9.34375 -46.921875 C 8.9375 -46.921875 8.582031 -46.769531 8.28125 -46.46875 C 7.976562 -46.164062 7.828125 -45.8125 7.828125 -45.40625 C 7.828125 -45 7.976562 -44.644531 8.28125 -44.34375 C 8.582031 -44.039062 8.9375 -43.890625 9.34375 -43.890625 Z M 11.921875 -5.15625 C 10.910156 -5.363281 10.238281 -5.796875 9.90625 -6.453125 C 9.582031 -7.109375 9.421875 -8.398438 9.421875 -10.328125 L 9.421875 -40.625 C 9.421875 -41.582031 9.34375 -42.210938 9.1875 -42.515625 C 9.03125 -42.828125 8.675781 -42.984375 8.125 -42.984375 C 7.570312 -42.984375 7.21875 -42.828125 7.0625 -42.515625 C 6.90625 -42.210938 6.828125 -41.582031 6.828125 -40.625 L 6.828125 -9.875 C 6.828125 -8.40625 6.878906 -7.316406 6.984375 -6.609375 C 7.085938 -5.898438 7.316406 -5.265625 7.671875 -4.703125 C 8.128906 -3.992188 8.722656 -3.445312 9.453125 -3.0625 C 10.191406 -2.6875 10.960938 -2.5 11.765625 -2.5 C 12.929688 -2.5 13.515625 -2.984375 13.515625 -3.953125 C 13.515625 -4.609375 13.210938 -4.988281 12.609375 -5.09375 Z M 11.921875 -5.15625 "/></g></g></g><g fill="#5e17eb" fill-opacity="1"><g transform="translate(233.393322, 213.032734)"><g><path d="M 3.953125 -40.703125 C 3.953125 -42.984375 4.21875 -44.753906 4.75 -46.015625 C 5.28125 -47.285156 6.203125 -48.347656 7.515625 -49.203125 C 8.628906 -49.910156 9.972656 -50.34375 11.546875 -50.5 C 11.898438 -50.550781 12.457031 -50.585938 13.21875 -50.609375 C 13.976562 -50.640625 14.890625 -50.65625 15.953125 -50.65625 L 25.96875 -50.65625 C 27.332031 -50.65625 28.445312 -50.640625 29.3125 -50.609375 C 30.175781 -50.585938 30.910156 -50.523438 31.515625 -50.421875 C 32.117188 -50.316406 32.632812 -50.1875 33.0625 -50.03125 C 33.5 -49.882812 33.945312 -49.660156 34.40625 -49.359375 C 35.5625 -48.703125 36.457031 -47.800781 37.09375 -46.65625 C 37.726562 -45.519531 38.046875 -44.296875 38.046875 -42.984375 C 38.046875 -41.816406 37.789062 -40.675781 37.28125 -39.5625 C 36.78125 -38.445312 36.125 -37.535156 35.3125 -36.828125 C 34.550781 -36.117188 33.703125 -35.632812 32.765625 -35.375 C 31.828125 -35.125 30.578125 -35 29.015625 -35 L 20.65625 -35 L 20.65625 -31.515625 L 25.75 -31.515625 C 27.207031 -31.515625 28.316406 -31.453125 29.078125 -31.328125 C 29.835938 -31.203125 30.523438 -30.9375 31.140625 -30.53125 C 33.003906 -29.414062 33.9375 -27.742188 33.9375 -25.515625 C 33.9375 -21.460938 31.484375 -19.4375 26.578125 -19.4375 L 20.65625 -19.4375 L 20.65625 -10.03125 C 20.65625 -8.25 20.539062 -6.878906 20.3125 -5.921875 C 20.082031 -4.960938 19.691406 -4.050781 19.140625 -3.1875 C 18.378906 -2.070312 17.390625 -1.195312 16.171875 -0.5625 C 14.960938 0.0625 13.671875 0.375 12.296875 0.375 C 10.785156 0.375 9.382812 0.0195312 8.09375 -0.6875 C 6.800781 -1.394531 5.800781 -2.378906 5.09375 -3.640625 C 4.632812 -4.453125 4.328125 -5.300781 4.171875 -6.1875 C 4.023438 -7.070312 3.953125 -8.300781 3.953125 -9.875 Z M 21.796875 -22.328125 L 26.953125 -22.328125 C 28.222656 -22.328125 29.125 -22.453125 29.65625 -22.703125 C 30.1875 -22.953125 30.453125 -23.410156 30.453125 -24.078125 C 30.453125 -24.929688 30.046875 -25.359375 29.234375 -25.359375 C 29.085938 -25.359375 28.859375 -25.3125 28.546875 -25.21875 C 28.097656 -25.113281 27.769531 -25.046875 27.5625 -25.015625 C 27.363281 -24.992188 26.910156 -24.984375 26.203125 -24.984375 L 21.03125 -24.984375 C 19.96875 -24.984375 19.4375 -24.523438 19.4375 -23.609375 C 19.4375 -22.753906 20.070312 -22.328125 21.34375 -22.328125 Z M 9.34375 -46.921875 C 8.9375 -46.921875 8.582031 -46.753906 8.28125 -46.421875 C 7.976562 -46.097656 7.828125 -45.734375 7.828125 -45.328125 C 7.828125 -44.929688 7.976562 -44.578125 8.28125 -44.265625 C 8.582031 -43.960938 8.9375 -43.8125 9.34375 -43.8125 C 9.75 -43.8125 10.101562 -43.960938 10.40625 -44.265625 C 10.707031 -44.578125 10.859375 -44.929688 10.859375 -45.328125 C 10.859375 -45.734375 10.707031 -46.097656 10.40625 -46.421875 C 10.101562 -46.753906 9.75 -46.921875 9.34375 -46.921875 Z M 28.859375 -37.890625 C 29.972656 -37.890625 30.78125 -37.941406 31.28125 -38.046875 C 31.789062 -38.148438 32.25 -38.328125 32.65625 -38.578125 C 33.5625 -39.128906 34.015625 -39.738281 34.015625 -40.40625 C 34.015625 -40.757812 33.890625 -41.0625 33.640625 -41.3125 C 33.390625 -41.5625 33.085938 -41.6875 32.734375 -41.6875 C 32.472656 -41.6875 32.066406 -41.507812 31.515625 -41.15625 C 31.054688 -40.90625 30.648438 -40.726562 30.296875 -40.625 C 29.941406 -40.519531 29.257812 -40.46875 28.25 -40.46875 L 21.796875 -40.546875 L 20.953125 -40.546875 C 19.941406 -40.546875 19.4375 -40.117188 19.4375 -39.265625 C 19.4375 -38.703125 19.585938 -38.332031 19.890625 -38.15625 C 20.191406 -37.976562 20.828125 -37.890625 21.796875 -37.890625 Z M 9.421875 -40.625 C 9.421875 -41.582031 9.34375 -42.210938 9.1875 -42.515625 C 9.03125 -42.828125 8.675781 -42.984375 8.125 -42.984375 C 7.570312 -42.984375 7.207031 -42.816406 7.03125 -42.484375 C 6.851562 -42.160156 6.765625 -41.539062 6.765625 -40.625 L 6.828125 -9.875 C 6.828125 -8.40625 6.878906 -7.316406 6.984375 -6.609375 C 7.085938 -5.898438 7.316406 -5.265625 7.671875 -4.703125 C 8.128906 -3.992188 8.722656 -3.445312 9.453125 -3.0625 C 10.191406 -2.6875 10.960938 -2.5 11.765625 -2.5 C 12.929688 -2.5 13.515625 -2.984375 13.515625 -3.953125 C 13.515625 -4.609375 13.210938 -4.988281 12.609375 -5.09375 L 11.921875 -5.15625 C 10.960938 -5.3125 10.28125 -5.796875 9.875 -6.609375 C 9.664062 -6.960938 9.535156 -7.363281 9.484375 -7.8125 C 9.441406 -8.269531 9.421875 -9.109375 9.421875 -10.328125 Z M 9.421875 -40.625 "/></g></g></g><g fill="#5e17eb" fill-opacity="1"><g transform="translate(272.27537, 213.032734)"><g><path d="M 14.28125 -21.265625 L 2.96875 -37.8125 C 2.40625 -38.570312 1.984375 -39.394531 1.703125 -40.28125 C 1.429688 -41.164062 1.296875 -42.039062 1.296875 -42.90625 C 1.296875 -44.019531 1.507812 -45.066406 1.9375 -46.046875 C 2.363281 -47.035156 2.957031 -47.894531 3.71875 -48.625 C 4.476562 -49.363281 5.351562 -49.945312 6.34375 -50.375 C 7.332031 -50.8125 8.40625 -51.03125 9.5625 -51.03125 C 12.800781 -51.03125 15.460938 -49.4375 17.546875 -46.25 L 22.78125 -38.265625 L 28.40625 -46.46875 C 30.53125 -49.507812 33.0625 -51.03125 36 -51.03125 C 37.113281 -51.03125 38.175781 -50.8125 39.1875 -50.375 C 40.195312 -49.945312 41.082031 -49.351562 41.84375 -48.59375 C 42.601562 -47.84375 43.207031 -46.957031 43.65625 -45.9375 C 44.113281 -44.925781 44.34375 -43.863281 44.34375 -42.75 C 44.34375 -40.976562 43.835938 -39.359375 42.828125 -37.890625 L 31.0625 -21.03125 L 31.0625 -10.03125 C 31.0625 -8.25 30.945312 -6.878906 30.71875 -5.921875 C 30.488281 -4.960938 30.097656 -4.050781 29.546875 -3.1875 C 28.785156 -2.070312 27.796875 -1.195312 26.578125 -0.5625 C 25.359375 0.0625 24.039062 0.375 22.625 0.375 C 21.15625 0.375 19.773438 0.0195312 18.484375 -0.6875 C 17.191406 -1.394531 16.191406 -2.378906 15.484375 -3.640625 C 15.035156 -4.503906 14.722656 -5.378906 14.546875 -6.265625 C 14.367188 -7.148438 14.28125 -8.40625 14.28125 -10.03125 Z M 31.140625 -40.625 C 31.441406 -41.03125 31.640625 -41.347656 31.734375 -41.578125 C 31.835938 -41.804688 31.890625 -42.019531 31.890625 -42.21875 C 31.890625 -42.625 31.773438 -42.953125 31.546875 -43.203125 C 31.316406 -43.460938 31.003906 -43.59375 30.609375 -43.59375 C 30.296875 -43.59375 30.039062 -43.503906 29.84375 -43.328125 C 29.644531 -43.148438 29.34375 -42.753906 28.9375 -42.140625 L 24.984375 -36.53125 C 24.472656 -35.71875 24.21875 -35.1875 24.21875 -34.9375 C 24.21875 -34.582031 24.34375 -34.273438 24.59375 -34.015625 C 24.851562 -33.765625 25.1875 -33.640625 25.59375 -33.640625 C 26 -33.640625 26.554688 -34.09375 27.265625 -35 Z M 6.90625 -47.078125 C 6.5 -47.078125 6.15625 -46.925781 5.875 -46.625 C 5.601562 -46.320312 5.46875 -45.941406 5.46875 -45.484375 C 5.46875 -45.078125 5.601562 -44.722656 5.875 -44.421875 C 6.15625 -44.117188 6.5 -43.96875 6.90625 -43.96875 C 7.3125 -43.96875 7.664062 -44.117188 7.96875 -44.421875 C 8.269531 -44.722656 8.421875 -45.078125 8.421875 -45.484375 C 8.421875 -45.941406 8.269531 -46.320312 7.96875 -46.625 C 7.664062 -46.925781 7.3125 -47.078125 6.90625 -47.078125 Z M 31.59375 -45.484375 C 31.59375 -45.078125 31.742188 -44.722656 32.046875 -44.421875 C 32.347656 -44.117188 32.703125 -43.96875 33.109375 -43.96875 C 33.566406 -43.96875 33.929688 -44.117188 34.203125 -44.421875 C 34.484375 -44.722656 34.625 -45.078125 34.625 -45.484375 C 34.625 -45.941406 34.484375 -46.320312 34.203125 -46.625 C 33.929688 -46.925781 33.566406 -47.078125 33.109375 -47.078125 C 32.703125 -47.078125 32.347656 -46.925781 32.046875 -46.625 C 31.742188 -46.320312 31.59375 -45.941406 31.59375 -45.484375 Z M 19.8125 -19.890625 L 19.8125 -20.890625 C 19.8125 -21.796875 19.710938 -22.550781 19.515625 -23.15625 C 19.316406 -23.769531 18.882812 -24.53125 18.21875 -25.4375 L 7.828125 -40.328125 C 7.472656 -40.828125 7.226562 -41.175781 7.09375 -41.375 C 6.96875 -41.582031 6.859375 -41.8125 6.765625 -42.0625 C 6.554688 -42.46875 6.363281 -42.742188 6.1875 -42.890625 C 6.007812 -43.046875 5.796875 -43.125 5.546875 -43.125 C 4.679688 -43.125 4.25 -42.695312 4.25 -41.84375 C 4.25 -41.4375 4.398438 -40.96875 4.703125 -40.4375 C 5.003906 -39.90625 5.515625 -39.109375 6.234375 -38.046875 L 15.953125 -24 L 16.484375 -23.15625 C 16.785156 -22.707031 16.960938 -22.351562 17.015625 -22.09375 C 17.066406 -21.84375 17.113281 -21.335938 17.15625 -20.578125 L 17.15625 -8.8125 C 17.15625 -6.78125 17.585938 -5.21875 18.453125 -4.125 C 19.316406 -3.039062 20.554688 -2.5 22.171875 -2.5 C 23.335938 -2.5 23.921875 -2.984375 23.921875 -3.953125 C 23.921875 -4.609375 23.59375 -4.988281 22.9375 -5.09375 L 22.328125 -5.15625 C 21.316406 -5.3125 20.644531 -5.71875 20.3125 -6.375 C 19.976562 -7.03125 19.8125 -8.222656 19.8125 -9.953125 Z M 19.8125 -19.890625 "/></g></g></g></svg>